<svg width="34" height="52" viewBox="0 0 34 52" fill="none" xmlns="http://www.w3.org/2000/svg">
<path d="M26.7023 13.8987C26.9138 13.8987 27.1271 13.882 27.3401 13.8483C28.4002 13.6802 29.3313 13.1093 29.962 12.2408L33.7894 6.97096C33.9445 6.75738 33.978 6.47869 33.8779 6.23443C33.7777 5.99018 33.5582 5.81519 33.2978 5.77192C33.23 5.76065 31.7289 5.51415 29.896 5.49384C29.309 3.75774 28.6115 2.40706 28.5793 2.3449C28.4577 2.1106 28.2234 1.95602 27.9601 1.93642C27.6972 1.91631 27.4422 2.03473 27.2871 2.24842L23.4597 7.51828C22.829 8.38674 22.5742 9.44878 22.7423 10.5089C22.8667 11.2939 23.2125 12.0077 23.7359 12.5817C23.1565 13.2702 22.1364 14.523 21.018 16.0822V15.4162C21.018 14.9955 20.677 14.6545 20.2563 14.6545C19.8356 14.6545 19.4946 14.9955 19.4946 15.4162V18.3265C18.8833 19.2835 18.2879 20.2952 17.7615 21.3223V17.0447C17.7615 17.0446 17.7615 17.0444 17.7615 17.0442V15.7317L19.9809 13.5124C20.2784 13.2149 20.2784 12.7326 19.9809 12.4352C19.6834 12.1377 19.2011 12.1377 18.9037 12.4352L17.7613 13.5773V11.2197C19.6138 10.8626 21.0178 9.23001 21.0178 7.27484V0.761749C21.0178 0.497789 20.8811 0.252618 20.6566 0.113782C20.432 -0.0250537 20.1517 -0.0376475 19.9155 0.0804695C19.8539 0.111243 18.4956 0.794452 16.9997 1.85466C15.5045 0.794859 14.1463 0.111751 14.0838 0.0804695C13.8475 -0.0376475 13.5671 -0.0249522 13.3427 0.113782C13.1181 0.252618 12.9814 0.497789 12.9814 0.761749V7.27484C12.9814 9.23001 14.3854 10.8627 16.2379 11.2197V15.2055L14.2817 13.2493C13.9842 12.9519 13.5019 12.9519 13.2045 13.2493C12.9071 13.5468 12.9071 14.0291 13.2045 14.3265L16.238 17.36V21.3223C14.2951 17.5318 11.4126 13.9469 10.2636 12.5817C10.787 12.0077 11.1329 11.2939 11.2573 10.5089C11.4254 9.44878 11.1705 8.38674 10.5398 7.51828L6.71247 2.24842C6.55739 2.03473 6.30236 1.91641 6.03942 1.93642C5.77617 1.95602 5.54186 2.1106 5.42019 2.3449C5.38769 2.40706 4.69026 3.75784 4.10334 5.49394C2.27125 5.51446 0.769452 5.76065 0.701506 5.77192C0.441101 5.81519 0.221523 5.99018 0.121484 6.23443C0.0213437 6.47869 0.0548587 6.75738 0.209944 6.97096L4.03732 12.2408C4.66802 13.1093 5.59915 13.6801 6.65925 13.8483C6.87233 13.8821 7.08541 13.8987 7.29706 13.8987C7.90288 13.8987 8.49601 13.7612 9.03977 13.4964C9.27509 13.7765 9.60019 14.1701 9.98501 14.6546H9.31623C8.89555 14.6546 8.55451 14.9956 8.55451 15.4163C8.55451 15.8369 8.89555 16.178 9.31623 16.178H11.1561C12.269 17.6745 13.5588 19.5576 14.6075 21.5004C13.3686 20.2829 11.9918 19.1905 10.4884 18.2337C5.92679 15.3309 1.81676 14.6889 1.644 14.663C1.42493 14.6302 1.20201 14.6945 1.03402 14.8391C0.865936 14.9838 0.76935 15.1946 0.76935 15.4163C0.76935 15.538 0.786108 18.4449 2.23886 22.492C3.55074 26.1465 6.3374 31.4532 12.1673 36.1351V38.9264L8.93648 51.042C8.87544 51.2706 8.9242 51.5147 9.06841 51.7024C9.21253 51.89 9.43576 52 9.6724 52H24.3268C24.5635 52 24.7867 51.89 24.9308 51.7024C25.075 51.5147 25.1238 51.2707 25.0627 51.042L21.832 38.9264V36.1351C27.6617 31.4532 30.4485 26.1465 31.7604 22.492C33.2132 18.4449 33.2299 15.538 33.2299 15.4163C33.2299 15.1946 33.1332 14.9838 32.9652 14.8391C32.7972 14.6944 32.5747 14.63 32.3551 14.663C32.2543 14.6781 29.8477 15.0503 26.6791 16.5087C24.603 17.4642 21.9078 19.0373 19.3852 21.5132C20.4353 19.5663 21.7284 17.6781 22.8437 16.178H24.6829C25.1036 16.178 25.4446 15.8369 25.4446 15.4163C25.4446 14.9956 25.1036 14.6546 24.6829 14.6546H24.0146C24.3993 14.1702 24.7242 13.7766 24.9595 13.4965C25.5034 13.7612 26.0965 13.8987 26.7023 13.8987ZM31.7967 7.12219L30.6465 8.70585C30.5923 8.18453 30.4937 7.62635 30.3467 7.02855C30.8831 7.04683 31.38 7.08289 31.7967 7.12219ZM3.35269 8.70585L2.20229 7.12189C2.6186 7.08258 3.11544 7.04673 3.6525 7.02865C3.50554 7.62645 3.40692 8.18453 3.35269 8.70585ZM8.75458 11.8982C8.21529 12.2898 7.55595 12.448 6.89772 12.3436C6.2396 12.2392 5.66151 11.8849 5.26988 11.3457C4.17758 9.84172 5.3362 6.28765 6.23838 4.18826L9.30708 8.41345C10.1154 9.52647 9.86761 11.0897 8.75458 11.8982ZM19.4944 2.05494V4.0091C19.1447 3.62022 18.7353 3.22738 18.2663 2.83118C18.7109 2.53076 19.1341 2.26802 19.4944 2.05494ZM14.5048 7.27484V2.05281C16.4686 3.22139 19.4945 5.41605 19.4945 7.27484C19.4945 8.6505 18.3753 9.76962 16.9997 9.76962C15.6242 9.76962 14.5048 8.6505 14.5048 7.27484ZM3.69617 22.0425C2.79481 19.5519 2.47224 17.4989 2.35677 16.3672C3.77732 16.7132 6.63092 17.5847 9.67047 19.519C12.1885 21.1214 14.3269 23.1267 16.0258 25.4793C17.9915 28.2009 19.3731 31.4034 20.142 35.0079H18.3678C17.3937 30.7348 15.4766 27.0974 12.6625 24.1897C12.37 23.8874 11.8878 23.8795 11.5854 24.1722C11.2831 24.4647 11.2753 24.947 11.5679 25.2492C14.1108 27.8767 15.8679 31.1568 16.8018 35.0079H13.1966C7.61699 30.5533 4.95057 25.5089 3.69617 22.0425ZM20.3085 36.5313V38.2644H13.6906V36.5313H20.3085ZM23.3354 50.4765H20.1089L19.9801 49.5095C19.9245 49.0926 19.5414 48.7994 19.1244 48.8552C18.7074 48.9107 18.4145 49.2938 18.47 49.7108L18.5721 50.4764H10.664L13.5142 39.7878H17.1469L18.0358 46.4542C18.0867 46.8371 18.4139 47.1154 18.7899 47.1154C18.8234 47.1154 18.8573 47.1132 18.8914 47.1086C19.3084 47.053 19.6013 46.6699 19.5458 46.2529L18.6837 39.7878H20.485L23.3354 50.4765ZM27.2677 17.9149C29.1089 17.0628 30.694 16.5989 31.6423 16.3677C31.5268 17.4998 31.2041 19.5524 30.303 22.0425C29.107 25.3475 26.6281 30.0873 21.5638 34.3824C20.8309 31.1082 19.6093 28.1478 17.9207 25.5537C20.8488 21.468 24.6028 19.1481 27.2677 17.9149ZM24.6922 8.41345L27.7614 4.18755C28.6644 6.28593 29.8238 9.83878 28.7294 11.3457C28.3377 11.8849 27.7596 12.2392 27.1015 12.3436C26.4433 12.4479 25.7839 12.2898 25.2448 11.8982C24.1316 11.0897 23.8838 9.52658 24.6922 8.41345Z" fill="#AE7C78"/>
</svg>
